<mxfile host="app.diagrams.net" modified="2022-04-16T06:49:21.834Z" agent="5.0 (Windows NT 10.0; Win64; x64) AppleWebKit/537.36 (KHTML, like Gecko) Chrome/100.0.4896.88 Safari/537.36" etag="_DXGIfREExjJMmQ3C9G1" version="17.4.3" type="github" pages="2">
  <diagram id="0HrUAls51A_VDx2Kjj2X" name="Page-1">
    <mxGraphModel dx="2249" dy="1931" grid="1" gridSize="10" guides="1" tooltips="1" connect="1" arrows="1" fold="1" page="1" pageScale="1" pageWidth="827" pageHeight="1169" math="0" shadow="0">
      <root>
        <mxCell id="0" />
        <mxCell id="1" parent="0" />
        <mxCell id="P0GGws4ZBA3GgPo6eqiu-1" value="订单服务" style="rounded=0;whiteSpace=wrap;html=1;" vertex="1" parent="1">
          <mxGeometry x="110" y="220" width="130" height="60" as="geometry" />
        </mxCell>
        <mxCell id="P0GGws4ZBA3GgPo6eqiu-2" value="用户服务" style="rounded=0;whiteSpace=wrap;html=1;" vertex="1" parent="1">
          <mxGeometry x="280" y="220" width="120" height="60" as="geometry" />
        </mxCell>
        <mxCell id="P0GGws4ZBA3GgPo6eqiu-3" value="Redis" style="rounded=0;whiteSpace=wrap;html=1;" vertex="1" parent="1">
          <mxGeometry x="110" y="300" width="290" height="60" as="geometry" />
        </mxCell>
        <mxCell id="P0GGws4ZBA3GgPo6eqiu-4" value="MySQL" style="rounded=0;whiteSpace=wrap;html=1;" vertex="1" parent="1">
          <mxGeometry x="110" y="380" width="290" height="60" as="geometry" />
        </mxCell>
        <mxCell id="P0GGws4ZBA3GgPo6eqiu-5" value="Zookeeper" style="rounded=0;whiteSpace=wrap;html=1;" vertex="1" parent="1">
          <mxGeometry x="-30" y="220" width="120" height="220" as="geometry" />
        </mxCell>
        <mxCell id="P0GGws4ZBA3GgPo6eqiu-6" value="RabbitMQ" style="rounded=0;whiteSpace=wrap;html=1;" vertex="1" parent="1">
          <mxGeometry x="420" y="220" width="120" height="220" as="geometry" />
        </mxCell>
        <mxCell id="P0GGws4ZBA3GgPo6eqiu-7" value="keepalive" style="rounded=0;whiteSpace=wrap;html=1;align=left;verticalAlign=top;" vertex="1" parent="1">
          <mxGeometry x="-30" y="100" width="570" height="100" as="geometry" />
        </mxCell>
        <mxCell id="P0GGws4ZBA3GgPo6eqiu-8" value="Nginx bak" style="rounded=0;whiteSpace=wrap;html=1;" vertex="1" parent="1">
          <mxGeometry x="280" y="130" width="240" height="60" as="geometry" />
        </mxCell>
        <mxCell id="P0GGws4ZBA3GgPo6eqiu-9" value="Nginx" style="rounded=0;whiteSpace=wrap;html=1;" vertex="1" parent="1">
          <mxGeometry x="-10" y="130" width="240" height="60" as="geometry" />
        </mxCell>
        <mxCell id="P0GGws4ZBA3GgPo6eqiu-11" value="keepalive" style="rounded=0;whiteSpace=wrap;html=1;align=left;verticalAlign=top;" vertex="1" parent="1">
          <mxGeometry x="-30" y="-10" width="570" height="100" as="geometry" />
        </mxCell>
        <mxCell id="P0GGws4ZBA3GgPo6eqiu-12" value="LVS" style="rounded=0;whiteSpace=wrap;html=1;" vertex="1" parent="1">
          <mxGeometry x="280" y="20" width="240" height="60" as="geometry" />
        </mxCell>
        <mxCell id="P0GGws4ZBA3GgPo6eqiu-13" value="LVS" style="rounded=0;whiteSpace=wrap;html=1;" vertex="1" parent="1">
          <mxGeometry x="-10" y="20" width="240" height="60" as="geometry" />
        </mxCell>
      </root>
    </mxGraphModel>
  </diagram>
  <diagram id="jrDXTti9Q34-HEI9SR4e" name="Page-2">
    <mxGraphModel dx="2249" dy="1931" grid="1" gridSize="10" guides="1" tooltips="1" connect="1" arrows="1" fold="1" page="1" pageScale="1" pageWidth="827" pageHeight="1169" math="0" shadow="0">
      <root>
        <mxCell id="0" />
        <mxCell id="1" parent="0" />
        <mxCell id="hOL5Q5SlT_1BufaO8CXT-1" value="订单服务" style="rounded=0;whiteSpace=wrap;html=1;" vertex="1" parent="1">
          <mxGeometry x="80" y="380" width="120" height="60" as="geometry" />
        </mxCell>
        <mxCell id="hOL5Q5SlT_1BufaO8CXT-2" value="订单服务" style="rounded=0;whiteSpace=wrap;html=1;" vertex="1" parent="1">
          <mxGeometry x="90" y="390" width="120" height="60" as="geometry" />
        </mxCell>
        <mxCell id="hOL5Q5SlT_1BufaO8CXT-5" style="edgeStyle=orthogonalEdgeStyle;rounded=0;orthogonalLoop=1;jettySize=auto;html=1;exitX=1;exitY=0.5;exitDx=0;exitDy=0;entryX=0;entryY=0.5;entryDx=0;entryDy=0;startArrow=classic;startFill=1;" edge="1" parent="1" source="hOL5Q5SlT_1BufaO8CXT-3" target="hOL5Q5SlT_1BufaO8CXT-4">
          <mxGeometry relative="1" as="geometry" />
        </mxCell>
        <mxCell id="hOL5Q5SlT_1BufaO8CXT-11" style="edgeStyle=orthogonalEdgeStyle;rounded=0;orthogonalLoop=1;jettySize=auto;html=1;exitX=0.5;exitY=0;exitDx=0;exitDy=0;entryX=0.5;entryY=0;entryDx=0;entryDy=0;startArrow=baseDash;startFill=0;" edge="1" parent="1" source="hOL5Q5SlT_1BufaO8CXT-3" target="hOL5Q5SlT_1BufaO8CXT-8">
          <mxGeometry relative="1" as="geometry">
            <Array as="points">
              <mxPoint x="160" y="330" />
              <mxPoint x="570" y="330" />
            </Array>
          </mxGeometry>
        </mxCell>
        <mxCell id="hOL5Q5SlT_1BufaO8CXT-27" style="edgeStyle=orthogonalEdgeStyle;rounded=0;orthogonalLoop=1;jettySize=auto;html=1;exitX=0.5;exitY=1;exitDx=0;exitDy=0;entryX=0.5;entryY=0;entryDx=0;entryDy=0;startArrow=baseDash;startFill=0;" edge="1" parent="1" source="hOL5Q5SlT_1BufaO8CXT-3" target="hOL5Q5SlT_1BufaO8CXT-24">
          <mxGeometry relative="1" as="geometry" />
        </mxCell>
        <mxCell id="hOL5Q5SlT_1BufaO8CXT-31" style="edgeStyle=orthogonalEdgeStyle;rounded=0;orthogonalLoop=1;jettySize=auto;html=1;exitX=0;exitY=0.5;exitDx=0;exitDy=0;entryX=0;entryY=0.5;entryDx=0;entryDy=0;startArrow=baseDash;startFill=0;" edge="1" parent="1" source="hOL5Q5SlT_1BufaO8CXT-3" target="hOL5Q5SlT_1BufaO8CXT-25">
          <mxGeometry relative="1" as="geometry">
            <Array as="points">
              <mxPoint x="40" y="430" />
              <mxPoint x="40" y="670" />
            </Array>
          </mxGeometry>
        </mxCell>
        <mxCell id="hOL5Q5SlT_1BufaO8CXT-33" style="edgeStyle=orthogonalEdgeStyle;rounded=0;orthogonalLoop=1;jettySize=auto;html=1;exitX=0;exitY=0.5;exitDx=0;exitDy=0;entryX=0.5;entryY=0;entryDx=0;entryDy=0;startArrow=baseDash;startFill=0;" edge="1" parent="1" source="hOL5Q5SlT_1BufaO8CXT-3" target="hOL5Q5SlT_1BufaO8CXT-32">
          <mxGeometry relative="1" as="geometry" />
        </mxCell>
        <mxCell id="hOL5Q5SlT_1BufaO8CXT-3" value="订单服务" style="rounded=0;whiteSpace=wrap;html=1;" vertex="1" parent="1">
          <mxGeometry x="100" y="400" width="120" height="60" as="geometry" />
        </mxCell>
        <mxCell id="hOL5Q5SlT_1BufaO8CXT-4" value="Zookeeper" style="rounded=0;whiteSpace=wrap;html=1;" vertex="1" parent="1">
          <mxGeometry x="280" y="400" width="120" height="60" as="geometry" />
        </mxCell>
        <mxCell id="hOL5Q5SlT_1BufaO8CXT-6" value="Zookeeper" style="rounded=0;whiteSpace=wrap;html=1;" vertex="1" parent="1">
          <mxGeometry x="290" y="410" width="120" height="60" as="geometry" />
        </mxCell>
        <mxCell id="hOL5Q5SlT_1BufaO8CXT-7" value="Zookeeper" style="rounded=0;whiteSpace=wrap;html=1;" vertex="1" parent="1">
          <mxGeometry x="300" y="420" width="120" height="60" as="geometry" />
        </mxCell>
        <mxCell id="hOL5Q5SlT_1BufaO8CXT-9" style="edgeStyle=orthogonalEdgeStyle;rounded=0;orthogonalLoop=1;jettySize=auto;html=1;exitX=0;exitY=0.5;exitDx=0;exitDy=0;entryX=1;entryY=0.5;entryDx=0;entryDy=0;" edge="1" parent="1" source="hOL5Q5SlT_1BufaO8CXT-8" target="hOL5Q5SlT_1BufaO8CXT-7">
          <mxGeometry relative="1" as="geometry" />
        </mxCell>
        <mxCell id="hOL5Q5SlT_1BufaO8CXT-8" value="用户服务" style="rounded=0;whiteSpace=wrap;html=1;" vertex="1" parent="1">
          <mxGeometry x="510" y="420" width="120" height="60" as="geometry" />
        </mxCell>
        <mxCell id="hOL5Q5SlT_1BufaO8CXT-12" value="用户服务" style="rounded=0;whiteSpace=wrap;html=1;" vertex="1" parent="1">
          <mxGeometry x="520" y="430" width="120" height="60" as="geometry" />
        </mxCell>
        <mxCell id="hOL5Q5SlT_1BufaO8CXT-35" style="edgeStyle=orthogonalEdgeStyle;rounded=0;orthogonalLoop=1;jettySize=auto;html=1;exitX=0.5;exitY=1;exitDx=0;exitDy=0;entryX=0.5;entryY=0;entryDx=0;entryDy=0;startArrow=baseDash;startFill=0;" edge="1" parent="1" source="hOL5Q5SlT_1BufaO8CXT-13" target="hOL5Q5SlT_1BufaO8CXT-34">
          <mxGeometry relative="1" as="geometry" />
        </mxCell>
        <mxCell id="hOL5Q5SlT_1BufaO8CXT-13" value="用户服务" style="rounded=0;whiteSpace=wrap;html=1;" vertex="1" parent="1">
          <mxGeometry x="530" y="440" width="120" height="60" as="geometry" />
        </mxCell>
        <mxCell id="hOL5Q5SlT_1BufaO8CXT-14" value="Keepalive" style="rounded=0;whiteSpace=wrap;html=1;verticalAlign=top;" vertex="1" parent="1">
          <mxGeometry x="-10" y="140" width="290" height="110" as="geometry" />
        </mxCell>
        <mxCell id="hOL5Q5SlT_1BufaO8CXT-17" style="edgeStyle=orthogonalEdgeStyle;rounded=0;orthogonalLoop=1;jettySize=auto;html=1;exitX=0.5;exitY=1;exitDx=0;exitDy=0;startArrow=baseDash;startFill=0;" edge="1" parent="1" source="hOL5Q5SlT_1BufaO8CXT-15" target="hOL5Q5SlT_1BufaO8CXT-1">
          <mxGeometry relative="1" as="geometry" />
        </mxCell>
        <mxCell id="hOL5Q5SlT_1BufaO8CXT-15" value="Nginx" style="rounded=0;whiteSpace=wrap;html=1;" vertex="1" parent="1">
          <mxGeometry y="175" width="120" height="60" as="geometry" />
        </mxCell>
        <mxCell id="hOL5Q5SlT_1BufaO8CXT-16" value="Nginx" style="rounded=0;whiteSpace=wrap;html=1;" vertex="1" parent="1">
          <mxGeometry x="150" y="175" width="120" height="60" as="geometry" />
        </mxCell>
        <mxCell id="hOL5Q5SlT_1BufaO8CXT-23" style="edgeStyle=orthogonalEdgeStyle;rounded=0;orthogonalLoop=1;jettySize=auto;html=1;exitX=0.5;exitY=1;exitDx=0;exitDy=0;entryX=0.5;entryY=0;entryDx=0;entryDy=0;startArrow=baseDash;startFill=0;" edge="1" parent="1" source="hOL5Q5SlT_1BufaO8CXT-21" target="hOL5Q5SlT_1BufaO8CXT-15">
          <mxGeometry relative="1" as="geometry" />
        </mxCell>
        <mxCell id="hOL5Q5SlT_1BufaO8CXT-20" value="Keepalive" style="rounded=0;whiteSpace=wrap;html=1;verticalAlign=top;" vertex="1" parent="1">
          <mxGeometry x="-10" y="-40" width="290" height="110" as="geometry" />
        </mxCell>
        <mxCell id="hOL5Q5SlT_1BufaO8CXT-21" value="LVS" style="rounded=0;whiteSpace=wrap;html=1;" vertex="1" parent="1">
          <mxGeometry y="-5" width="120" height="60" as="geometry" />
        </mxCell>
        <mxCell id="hOL5Q5SlT_1BufaO8CXT-22" value="LVS" style="rounded=0;whiteSpace=wrap;html=1;" vertex="1" parent="1">
          <mxGeometry x="150" y="-5" width="120" height="60" as="geometry" />
        </mxCell>
        <mxCell id="hOL5Q5SlT_1BufaO8CXT-24" value="Redis" style="rounded=0;whiteSpace=wrap;html=1;" vertex="1" parent="1">
          <mxGeometry x="100" y="525" width="120" height="60" as="geometry" />
        </mxCell>
        <mxCell id="hOL5Q5SlT_1BufaO8CXT-29" style="edgeStyle=orthogonalEdgeStyle;rounded=0;orthogonalLoop=1;jettySize=auto;html=1;exitX=1;exitY=0.5;exitDx=0;exitDy=0;entryX=0.5;entryY=1;entryDx=0;entryDy=0;startArrow=baseDash;startFill=0;" edge="1" parent="1" source="hOL5Q5SlT_1BufaO8CXT-25" target="hOL5Q5SlT_1BufaO8CXT-28">
          <mxGeometry relative="1" as="geometry" />
        </mxCell>
        <mxCell id="hOL5Q5SlT_1BufaO8CXT-25" value="MySQL" style="rounded=0;whiteSpace=wrap;html=1;" vertex="1" parent="1">
          <mxGeometry x="100" y="640" width="120" height="60" as="geometry" />
        </mxCell>
        <mxCell id="hOL5Q5SlT_1BufaO8CXT-30" style="edgeStyle=orthogonalEdgeStyle;rounded=0;orthogonalLoop=1;jettySize=auto;html=1;exitX=0;exitY=0.5;exitDx=0;exitDy=0;entryX=1;entryY=0.5;entryDx=0;entryDy=0;startArrow=baseDash;startFill=0;" edge="1" parent="1" source="hOL5Q5SlT_1BufaO8CXT-28" target="hOL5Q5SlT_1BufaO8CXT-24">
          <mxGeometry relative="1" as="geometry" />
        </mxCell>
        <mxCell id="hOL5Q5SlT_1BufaO8CXT-28" value="管理平台" style="rounded=0;whiteSpace=wrap;html=1;" vertex="1" parent="1">
          <mxGeometry x="310" y="525" width="120" height="60" as="geometry" />
        </mxCell>
        <mxCell id="hOL5Q5SlT_1BufaO8CXT-32" value="MySQL" style="rounded=0;whiteSpace=wrap;html=1;" vertex="1" parent="1">
          <mxGeometry x="-100" y="640" width="120" height="60" as="geometry" />
        </mxCell>
        <mxCell id="hOL5Q5SlT_1BufaO8CXT-34" value="用户画像" style="rounded=0;whiteSpace=wrap;html=1;" vertex="1" parent="1">
          <mxGeometry x="530" y="525" width="120" height="60" as="geometry" />
        </mxCell>
        <mxCell id="hOL5Q5SlT_1BufaO8CXT-36" value="用户画像" style="rounded=0;whiteSpace=wrap;html=1;" vertex="1" parent="1">
          <mxGeometry x="540" y="535" width="120" height="60" as="geometry" />
        </mxCell>
        <mxCell id="hOL5Q5SlT_1BufaO8CXT-39" style="edgeStyle=orthogonalEdgeStyle;rounded=0;orthogonalLoop=1;jettySize=auto;html=1;exitX=0.5;exitY=1;exitDx=0;exitDy=0;entryX=0.5;entryY=0;entryDx=0;entryDy=0;startArrow=baseDash;startFill=0;" edge="1" parent="1" source="hOL5Q5SlT_1BufaO8CXT-37" target="hOL5Q5SlT_1BufaO8CXT-38">
          <mxGeometry relative="1" as="geometry" />
        </mxCell>
        <mxCell id="hOL5Q5SlT_1BufaO8CXT-37" value="用户画像" style="rounded=0;whiteSpace=wrap;html=1;" vertex="1" parent="1">
          <mxGeometry x="550" y="545" width="120" height="60" as="geometry" />
        </mxCell>
        <mxCell id="hOL5Q5SlT_1BufaO8CXT-38" value="Redis" style="rounded=0;whiteSpace=wrap;html=1;" vertex="1" parent="1">
          <mxGeometry x="550" y="640" width="120" height="60" as="geometry" />
        </mxCell>
        <mxCell id="hOL5Q5SlT_1BufaO8CXT-41" style="edgeStyle=orthogonalEdgeStyle;rounded=0;orthogonalLoop=1;jettySize=auto;html=1;exitX=0;exitY=0.5;exitDx=0;exitDy=0;entryX=1;entryY=0.5;entryDx=0;entryDy=0;startArrow=baseDash;startFill=0;" edge="1" parent="1" source="hOL5Q5SlT_1BufaO8CXT-40" target="hOL5Q5SlT_1BufaO8CXT-38">
          <mxGeometry relative="1" as="geometry" />
        </mxCell>
        <mxCell id="hOL5Q5SlT_1BufaO8CXT-64" style="edgeStyle=orthogonalEdgeStyle;rounded=0;orthogonalLoop=1;jettySize=auto;html=1;exitX=0.5;exitY=1;exitDx=0;exitDy=0;startArrow=baseDash;startFill=0;entryX=1;entryY=0.5;entryDx=0;entryDy=0;" edge="1" parent="1" source="hOL5Q5SlT_1BufaO8CXT-40" target="hOL5Q5SlT_1BufaO8CXT-63">
          <mxGeometry relative="1" as="geometry" />
        </mxCell>
        <mxCell id="hOL5Q5SlT_1BufaO8CXT-66" value="场景/实验/模型/物品" style="edgeLabel;html=1;align=center;verticalAlign=middle;resizable=0;points=[];" vertex="1" connectable="0" parent="hOL5Q5SlT_1BufaO8CXT-64">
          <mxGeometry x="0.1348" y="-3" relative="1" as="geometry">
            <mxPoint as="offset" />
          </mxGeometry>
        </mxCell>
        <mxCell id="hOL5Q5SlT_1BufaO8CXT-40" value="Hadoop/Spark" style="rounded=0;whiteSpace=wrap;html=1;" vertex="1" parent="1">
          <mxGeometry x="750" y="640" width="120" height="60" as="geometry" />
        </mxCell>
        <mxCell id="hOL5Q5SlT_1BufaO8CXT-43" style="edgeStyle=orthogonalEdgeStyle;rounded=0;orthogonalLoop=1;jettySize=auto;html=1;exitX=0;exitY=0.5;exitDx=0;exitDy=0;entryX=1;entryY=0.5;entryDx=0;entryDy=0;startArrow=baseDash;startFill=0;" edge="1" parent="1" source="hOL5Q5SlT_1BufaO8CXT-42" target="hOL5Q5SlT_1BufaO8CXT-40">
          <mxGeometry relative="1" as="geometry" />
        </mxCell>
        <mxCell id="hOL5Q5SlT_1BufaO8CXT-42" value="Hive" style="rounded=0;whiteSpace=wrap;html=1;" vertex="1" parent="1">
          <mxGeometry x="950" y="640" width="120" height="60" as="geometry" />
        </mxCell>
        <mxCell id="hOL5Q5SlT_1BufaO8CXT-47" style="edgeStyle=orthogonalEdgeStyle;rounded=0;orthogonalLoop=1;jettySize=auto;html=1;exitX=0;exitY=0.5;exitDx=0;exitDy=0;startArrow=baseDash;startFill=0;" edge="1" parent="1" source="hOL5Q5SlT_1BufaO8CXT-44" target="hOL5Q5SlT_1BufaO8CXT-20">
          <mxGeometry relative="1" as="geometry" />
        </mxCell>
        <mxCell id="hOL5Q5SlT_1BufaO8CXT-58" style="edgeStyle=orthogonalEdgeStyle;rounded=0;orthogonalLoop=1;jettySize=auto;html=1;exitX=0.5;exitY=1;exitDx=0;exitDy=0;startArrow=baseDash;startFill=0;" edge="1" parent="1" source="hOL5Q5SlT_1BufaO8CXT-44" target="hOL5Q5SlT_1BufaO8CXT-48">
          <mxGeometry relative="1" as="geometry" />
        </mxCell>
        <mxCell id="hOL5Q5SlT_1BufaO8CXT-44" value="业务" style="rounded=0;whiteSpace=wrap;html=1;verticalAlign=top;" vertex="1" parent="1">
          <mxGeometry x="500" y="-40" width="290" height="110" as="geometry" />
        </mxCell>
        <mxCell id="hOL5Q5SlT_1BufaO8CXT-45" value="理财通" style="rounded=0;whiteSpace=wrap;html=1;" vertex="1" parent="1">
          <mxGeometry x="510" width="120" height="60" as="geometry" />
        </mxCell>
        <mxCell id="hOL5Q5SlT_1BufaO8CXT-46" value="信用卡" style="rounded=0;whiteSpace=wrap;html=1;" vertex="1" parent="1">
          <mxGeometry x="660" y="-5" width="120" height="60" as="geometry" />
        </mxCell>
        <mxCell id="hOL5Q5SlT_1BufaO8CXT-57" style="edgeStyle=orthogonalEdgeStyle;rounded=0;orthogonalLoop=1;jettySize=auto;html=1;exitX=0.5;exitY=1;exitDx=0;exitDy=0;startArrow=baseDash;startFill=0;" edge="1" parent="1" source="hOL5Q5SlT_1BufaO8CXT-48" target="hOL5Q5SlT_1BufaO8CXT-51">
          <mxGeometry relative="1" as="geometry" />
        </mxCell>
        <mxCell id="hOL5Q5SlT_1BufaO8CXT-48" value="数据上报服务" style="rounded=0;whiteSpace=wrap;html=1;verticalAlign=top;" vertex="1" parent="1">
          <mxGeometry x="500" y="125" width="290" height="110" as="geometry" />
        </mxCell>
        <mxCell id="hOL5Q5SlT_1BufaO8CXT-49" value="APP" style="rounded=0;whiteSpace=wrap;html=1;" vertex="1" parent="1">
          <mxGeometry x="510" y="165" width="120" height="60" as="geometry" />
        </mxCell>
        <mxCell id="hOL5Q5SlT_1BufaO8CXT-50" value="APP" style="rounded=0;whiteSpace=wrap;html=1;" vertex="1" parent="1">
          <mxGeometry x="660" y="165" width="120" height="60" as="geometry" />
        </mxCell>
        <mxCell id="hOL5Q5SlT_1BufaO8CXT-56" style="edgeStyle=orthogonalEdgeStyle;rounded=0;orthogonalLoop=1;jettySize=auto;html=1;exitX=0.5;exitY=1;exitDx=0;exitDy=0;startArrow=baseDash;startFill=0;" edge="1" parent="1" source="hOL5Q5SlT_1BufaO8CXT-51" target="hOL5Q5SlT_1BufaO8CXT-52">
          <mxGeometry relative="1" as="geometry" />
        </mxCell>
        <mxCell id="hOL5Q5SlT_1BufaO8CXT-51" value="Kafka" style="rounded=0;whiteSpace=wrap;html=1;verticalAlign=middle;" vertex="1" parent="1">
          <mxGeometry x="620" y="270" width="290" height="60" as="geometry" />
        </mxCell>
        <mxCell id="hOL5Q5SlT_1BufaO8CXT-55" style="edgeStyle=orthogonalEdgeStyle;rounded=0;orthogonalLoop=1;jettySize=auto;html=1;exitX=0.75;exitY=1;exitDx=0;exitDy=0;startArrow=baseDash;startFill=0;" edge="1" parent="1" source="hOL5Q5SlT_1BufaO8CXT-52" target="hOL5Q5SlT_1BufaO8CXT-42">
          <mxGeometry relative="1" as="geometry" />
        </mxCell>
        <mxCell id="hOL5Q5SlT_1BufaO8CXT-67" value="画像生产" style="edgeLabel;html=1;align=center;verticalAlign=middle;resizable=0;points=[];" vertex="1" connectable="0" parent="hOL5Q5SlT_1BufaO8CXT-55">
          <mxGeometry x="-0.2591" y="-1" relative="1" as="geometry">
            <mxPoint as="offset" />
          </mxGeometry>
        </mxCell>
        <mxCell id="hOL5Q5SlT_1BufaO8CXT-68" style="edgeStyle=orthogonalEdgeStyle;rounded=0;orthogonalLoop=1;jettySize=auto;html=1;exitX=0.5;exitY=1;exitDx=0;exitDy=0;entryX=0.25;entryY=0;entryDx=0;entryDy=0;startArrow=baseDash;startFill=0;" edge="1" parent="1" source="hOL5Q5SlT_1BufaO8CXT-52" target="hOL5Q5SlT_1BufaO8CXT-42">
          <mxGeometry relative="1" as="geometry" />
        </mxCell>
        <mxCell id="hOL5Q5SlT_1BufaO8CXT-69" value="曝光/点击/转化" style="edgeLabel;html=1;align=center;verticalAlign=middle;resizable=0;points=[];" vertex="1" connectable="0" parent="hOL5Q5SlT_1BufaO8CXT-68">
          <mxGeometry x="-0.3758" y="1" relative="1" as="geometry">
            <mxPoint as="offset" />
          </mxGeometry>
        </mxCell>
        <mxCell id="hOL5Q5SlT_1BufaO8CXT-52" value="大数据计算" style="rounded=0;whiteSpace=wrap;html=1;verticalAlign=top;" vertex="1" parent="1">
          <mxGeometry x="665" y="380" width="290" height="100" as="geometry" />
        </mxCell>
        <mxCell id="hOL5Q5SlT_1BufaO8CXT-53" value="Spark" style="rounded=0;whiteSpace=wrap;html=1;" vertex="1" parent="1">
          <mxGeometry x="670" y="410" width="120" height="60" as="geometry" />
        </mxCell>
        <mxCell id="hOL5Q5SlT_1BufaO8CXT-62" style="edgeStyle=orthogonalEdgeStyle;rounded=0;orthogonalLoop=1;jettySize=auto;html=1;exitX=1;exitY=0.5;exitDx=0;exitDy=0;entryX=0.5;entryY=1;entryDx=0;entryDy=0;startArrow=baseDash;startFill=0;" edge="1" parent="1" source="hOL5Q5SlT_1BufaO8CXT-54" target="hOL5Q5SlT_1BufaO8CXT-38">
          <mxGeometry relative="1" as="geometry">
            <Array as="points">
              <mxPoint x="1140" y="440" />
              <mxPoint x="1140" y="720" />
              <mxPoint x="610" y="720" />
            </Array>
          </mxGeometry>
        </mxCell>
        <mxCell id="hOL5Q5SlT_1BufaO8CXT-54" value="Flink" style="rounded=0;whiteSpace=wrap;html=1;" vertex="1" parent="1">
          <mxGeometry x="827" y="410" width="120" height="60" as="geometry" />
        </mxCell>
        <mxCell id="hOL5Q5SlT_1BufaO8CXT-65" style="edgeStyle=orthogonalEdgeStyle;rounded=0;orthogonalLoop=1;jettySize=auto;html=1;exitX=0.5;exitY=0;exitDx=0;exitDy=0;entryX=0.75;entryY=1;entryDx=0;entryDy=0;startArrow=baseDash;startFill=0;" edge="1" parent="1" source="hOL5Q5SlT_1BufaO8CXT-63" target="hOL5Q5SlT_1BufaO8CXT-28">
          <mxGeometry relative="1" as="geometry" />
        </mxCell>
        <mxCell id="hOL5Q5SlT_1BufaO8CXT-63" value="MySQL" style="rounded=0;whiteSpace=wrap;html=1;" vertex="1" parent="1">
          <mxGeometry x="380" y="820" width="120" height="60" as="geometry" />
        </mxCell>
      </root>
    </mxGraphModel>
  </diagram>
</mxfile>
